<svg width="55" height="55" viewBox="0 0 55 55" fill="none" xmlns="http://www.w3.org/2000/svg">
<path d="M34.378 36.0935C35.1185 36.0949 35.8409 35.8654 36.4447 35.4368C37.0485 35.0083 37.5037 34.4021 37.7468 33.7028L39.1063 29.5245C39.4274 28.5498 39.9732 27.6643 40.6996 26.9395C41.4254 26.2106 42.311 25.661 43.2863 25.3342L47.413 23.9918C47.9398 23.815 48.418 23.5176 48.8095 23.1233C49.201 22.7291 49.495 22.2488 49.6681 21.7208C49.8412 21.1928 49.8886 20.6317 49.8066 20.0821C49.7245 19.5326 49.5152 19.0098 49.1954 18.5554C48.7691 17.947 48.1641 17.4864 47.4629 17.2389L43.2708 15.881C42.3298 15.5492 41.476 15.0087 40.7735 14.3C40.071 13.5912 39.5381 12.7327 39.2146 11.7887L37.843 7.57089C37.6024 6.85417 37.1383 6.23371 36.5196 5.79886C35.9131 5.38068 35.1938 5.15674 34.4571 5.15674C33.7204 5.15674 33.0011 5.38068 32.3946 5.79886C31.793 6.22339 31.3393 6.82324 31.0952 7.51761L29.7288 11.7114C29.4055 12.6837 28.8596 13.567 28.1344 14.2909C27.4093 15.0148 26.5251 15.5594 25.5523 15.881L21.4187 17.2217C20.6693 17.4606 20.0179 17.935 19.559 18.5743C19.1334 19.1756 18.9048 19.8941 18.9048 20.6308C18.9048 21.3675 19.1334 22.086 19.559 22.6873C19.9835 23.2889 20.5833 23.7443 21.2777 23.9918L25.4766 25.3565C26.446 25.6787 27.3265 26.2231 28.0479 26.9464C28.7715 27.6734 29.3198 28.5585 29.6446 29.5314L30.9852 33.6598C31.2389 34.3697 31.6985 34.9878 32.3052 35.4353C32.9102 35.865 33.6355 36.097 34.378 36.0935ZM14.6021 51.5623C15.2208 51.5639 15.8247 51.3728 16.3298 51.0155C16.8349 50.6582 17.2163 50.1525 17.4208 49.5686L18.3627 46.6879C18.5539 46.0955 18.8832 45.557 19.3235 45.117C19.7656 44.6769 20.3031 44.3446 20.8944 44.1459L23.7355 43.2264C24.338 43.0211 24.8598 42.6299 25.2257 42.1092C25.4947 41.7327 25.6722 41.2987 25.7442 40.8416C25.8161 40.3845 25.7806 39.9169 25.6402 39.476C25.4999 39.035 25.2588 38.6329 24.9359 38.3014C24.613 37.97 24.2173 37.7183 23.7802 37.5665L20.891 36.6246C20.3126 36.4215 19.7886 36.0879 19.3597 35.6498C18.9309 35.2117 18.6085 34.6807 18.4177 34.0981L17.4982 31.2621C17.3521 30.8184 17.1036 30.4154 16.7728 30.0855C16.442 29.7556 16.0383 29.5082 15.5942 29.3633C15.1501 29.2184 14.6781 29.1801 14.2164 29.2514C13.7547 29.3226 13.3163 29.5016 12.9366 29.7737C12.4296 30.1295 12.048 30.6365 11.8469 31.2209L10.9085 34.1015C10.7109 34.6898 10.3791 35.224 9.93944 35.6619C9.49973 36.0999 8.96415 36.4295 8.37506 36.6246L5.53054 37.5528C4.93107 37.7388 4.40574 38.1096 4.02963 38.6121C3.65351 39.1146 3.44585 39.7231 3.43632 40.3507C3.42679 40.9783 3.61587 41.5928 3.97655 42.1065C4.33723 42.6202 4.85106 43.0067 5.4446 43.2109L8.32007 44.1493C8.91055 44.3412 9.44675 44.6712 9.88413 45.1118C10.3228 45.5531 10.6539 46.0894 10.8518 46.6793L11.7765 49.5153C11.9832 50.1165 12.3741 50.6373 12.8937 51.0037C13.3919 51.3617 13.9886 51.5568 14.6021 51.5623Z" fill="#EDDB3D"/>
</svg>
