<svg viewBox="0 0 63 63" fill="none" xmlns="http://www.w3.org/2000/svg">
<path d="M37.6415 31.2708L18.7234 12.3527C18.0799 11.7092 17.7685 10.9474 17.789 10.0671C17.8096 9.18683 18.1425 8.42581 18.7877 7.78406C19.4312 7.14058 20.1931 6.81885 21.0733 6.81885C21.9536 6.81885 22.7146 7.14058 23.3564 7.78406L43.111 27.603C43.6258 28.1178 44.0118 28.6969 44.2692 29.3404C44.5266 29.9839 44.6553 30.6273 44.6553 31.2708C44.6553 31.9143 44.5266 32.5578 44.2692 33.2012C44.0118 33.8447 43.6258 34.4238 43.111 34.9386L23.292 54.7576C22.6486 55.4011 21.8978 55.7125 21.0399 55.6919C20.1819 55.6713 19.4312 55.3384 18.7877 54.6932C18.1442 54.0498 17.8225 53.2879 17.8225 52.4076C17.8225 51.5273 18.1442 50.7663 18.7877 50.1246L37.6415 31.2708Z" fill="#F8F8F8"/>
</svg>
