<svg width="50" height="50" viewBox="0 0 110 110" fill="none" xmlns="http://www.w3.org/2000/svg">
<circle cx="55" cy="55" r="55" fill="#D9D9D9"/>
<path d="M61.6405 55.2711L42.7224 36.353C42.0789 35.7095 41.7675 34.9476 41.7881 34.0673C41.8087 33.1871 42.1415 32.4261 42.7867 31.7843C43.4302 31.1408 44.1921 30.8191 45.0724 30.8191C45.9526 30.8191 46.7136 31.1408 47.3554 31.7843L67.11 51.6033C67.6248 52.118 68.0109 52.6972 68.2683 53.3406C68.5257 53.9841 68.6544 54.6276 68.6544 55.2711C68.6544 55.9145 68.5257 56.558 68.2683 57.2015C68.0109 57.845 67.6248 58.4241 67.11 58.9389L47.291 78.7578C46.6476 79.4013 45.8969 79.7127 45.0389 79.6922C44.1809 79.6716 43.4302 79.3387 42.7867 78.6935C42.1433 78.05 41.8215 77.2881 41.8215 76.4079C41.8215 75.5276 42.1433 74.7666 42.7867 74.1248L61.6405 55.2711Z" fill="#F8F8F8"/>
</svg>
