<svg width="55" height="55" viewBox="0 0 55 55" fill="none" xmlns="http://www.w3.org/2000/svg">
<path d="M44.6874 30.9375C44.6918 31.6383 44.4789 32.3232 44.078 32.898C43.6771 33.4728 43.1079 33.9092 42.4488 34.1473L31.3521 38.2293L27.2701 49.3174C27.0283 49.9741 26.591 50.5409 26.017 50.9412C25.443 51.3415 24.7601 51.5562 24.0603 51.5562C23.3605 51.5562 22.6776 51.3415 22.1036 50.9412C21.5296 50.5409 21.0923 49.9741 20.8505 49.3174L16.7578 38.2422L5.66752 34.1602C5.01081 33.9184 4.44404 33.4811 4.0437 32.9071C3.64336 32.3331 3.42871 31.6502 3.42871 30.9504C3.42871 30.2506 3.64336 29.5676 4.0437 28.9937C4.44404 28.4197 5.01081 27.9824 5.66752 27.7406L16.7642 23.6586L20.8462 12.5705C21.088 11.9138 21.5253 11.347 22.0993 10.9467C22.6733 10.5463 23.3562 10.3317 24.056 10.3317C24.7558 10.3317 25.4387 10.5463 26.0127 10.9467C26.5867 11.347 27.024 11.9138 27.2658 12.5705L31.3478 23.6672L42.4359 27.7492C43.094 27.9839 43.6635 28.4161 44.0665 28.9868C44.4695 29.5575 44.6864 30.2388 44.6874 30.9375ZM32.6562 10.3125H36.0937V13.75C36.0937 14.2058 36.2748 14.643 36.5971 14.9653C36.9194 15.2877 37.3566 15.4688 37.8124 15.4688C38.2683 15.4688 38.7055 15.2877 39.0278 14.9653C39.3501 14.643 39.5312 14.2058 39.5312 13.75V10.3125H42.9687C43.4245 10.3125 43.8617 10.1314 44.184 9.80909C44.5064 9.48676 44.6874 9.04959 44.6874 8.59375C44.6874 8.13791 44.5064 7.70074 44.184 7.37841C43.8617 7.05608 43.4245 6.875 42.9687 6.875H39.5312V3.4375C39.5312 2.98166 39.3501 2.54449 39.0278 2.22216C38.7055 1.89983 38.2683 1.71875 37.8124 1.71875C37.3566 1.71875 36.9194 1.89983 36.5971 2.22216C36.2748 2.54449 36.0937 2.98166 36.0937 3.4375V6.875H32.6562C32.2004 6.875 31.7632 7.05608 31.4409 7.37841C31.1185 7.70074 30.9374 8.13791 30.9374 8.59375C30.9374 9.04959 31.1185 9.48676 31.4409 9.80909C31.7632 10.1314 32.2004 10.3125 32.6562 10.3125ZM51.5624 17.1875H49.8437V15.4688C49.8437 15.0129 49.6626 14.5757 49.3403 14.2534C49.018 13.9311 48.5808 13.75 48.1249 13.75C47.6691 13.75 47.2319 13.9311 46.9096 14.2534C46.5873 14.5757 46.4062 15.0129 46.4062 15.4688V17.1875H44.6874C44.2316 17.1875 43.7944 17.3686 43.4721 17.6909C43.1498 18.0132 42.9687 18.4504 42.9687 18.9063C42.9687 19.3621 43.1498 19.7993 43.4721 20.1216C43.7944 20.4439 44.2316 20.625 44.6874 20.625H46.4062V22.3438C46.4062 22.7996 46.5873 23.2368 46.9096 23.5591C47.2319 23.8814 47.6691 24.0625 48.1249 24.0625C48.5808 24.0625 49.018 23.8814 49.3403 23.5591C49.6626 23.2368 49.8437 22.7996 49.8437 22.3438V20.625H51.5624C52.0183 20.625 52.4555 20.4439 52.7778 20.1216C53.1001 19.7993 53.2812 19.3621 53.2812 18.9063C53.2812 18.4504 53.1001 18.0132 52.7778 17.6909C52.4555 17.3686 52.0183 17.1875 51.5624 17.1875Z" fill="#EDDB3D"/>
</svg>
