<svg width="78" height="78" viewBox="0 0 78 78" fill="none" xmlns="http://www.w3.org/2000/svg">
<path d="M64.5541 45.7299C64.5609 46.8267 64.2278 47.8987 63.6005 48.7983C62.9733 49.6979 62.0827 50.381 61.0514 50.7535L43.6894 57.1422L37.3026 74.4961C36.9243 75.5239 36.2401 76.4109 35.342 77.0375C34.444 77.664 33.3754 78 32.2805 78C31.1856 78 30.117 77.664 29.219 77.0375C28.321 76.4109 27.6367 75.5239 27.2585 74.4961L20.8548 57.1624L3.50288 50.7737C2.47537 50.3953 1.58861 49.7108 0.962228 48.8125C0.335847 47.9142 0 46.8453 0 45.7501C0 44.6549 0.335847 43.586 0.962228 42.6877C1.58861 41.7894 2.47537 41.1049 3.50288 40.7265L20.8649 34.3378L27.2517 16.984C27.63 15.9561 28.3143 15.0691 29.2123 14.4425C30.1103 13.816 31.1789 13.48 32.2738 13.48C33.3687 13.48 34.4373 13.816 35.3353 14.4425C36.2333 15.0691 36.9176 15.9561 37.2958 16.984L43.6827 34.3512L61.0312 40.74C62.0609 41.1072 62.952 41.7838 63.5826 42.677C64.2132 43.5702 64.5525 44.6364 64.5541 45.7299ZM45.7298 13.45H51.1082V18.83C51.1082 19.5434 51.3915 20.2276 51.8958 20.7321C52.4001 21.2366 53.0841 21.52 53.7973 21.52C54.5106 21.52 55.1946 21.2366 55.6989 20.7321C56.2032 20.2276 56.4865 19.5434 56.4865 18.83V13.45H61.8649C62.5781 13.45 63.2621 13.1666 63.7664 12.6621C64.2708 12.1576 64.5541 11.4734 64.5541 10.76C64.5541 10.0465 64.2708 9.36234 63.7664 8.85787C63.2621 8.3534 62.5781 8.06999 61.8649 8.06999H56.4865V2.69C56.4865 1.97656 56.2032 1.29235 55.6989 0.787881C55.1946 0.283409 54.5106 0 53.7973 0C53.0841 0 52.4001 0.283409 51.8958 0.787881C51.3915 1.29235 51.1082 1.97656 51.1082 2.69V8.06999H45.7298C45.0166 8.06999 44.3326 8.3534 43.8283 8.85787C43.3239 9.36234 43.0406 10.0465 43.0406 10.76C43.0406 11.4734 43.3239 12.1576 43.8283 12.6621C44.3326 13.1666 45.0166 13.45 45.7298 13.45ZM75.3108 24.21H72.6216V21.52C72.6216 20.8065 72.3383 20.1223 71.834 19.6178C71.3297 19.1134 70.6457 18.83 69.9324 18.83C69.2192 18.83 68.5352 19.1134 68.0309 19.6178C67.5266 20.1223 67.2433 20.8065 67.2433 21.52V24.21H64.5541C63.8409 24.21 63.1569 24.4934 62.6525 24.9978C62.1482 25.5023 61.8649 26.1865 61.8649 26.9C61.8649 27.6134 62.1482 28.2976 62.6525 28.8021C63.1569 29.3065 63.8409 29.5899 64.5541 29.5899H67.2433V32.2799C67.2433 32.9934 67.5266 33.6776 68.0309 34.1821C68.5352 34.6865 69.2192 34.9699 69.9324 34.9699C70.6457 34.9699 71.3297 34.6865 71.834 34.1821C72.3383 33.6776 72.6216 32.9934 72.6216 32.2799V29.5899H75.3108C76.024 29.5899 76.708 29.3065 77.2124 28.8021C77.7167 28.2976 78 27.6134 78 26.9C78 26.1865 77.7167 25.5023 77.2124 24.9978C76.708 24.4934 76.024 24.21 75.3108 24.21Z" fill="#EDDB3D"/>
</svg>
