<svg width="40" height="40" viewBox="0 0 103 103" fill="none" xmlns="http://www.w3.org/2000/svg">
<path d="M64.3819 67.5934C65.7685 67.596 67.1214 67.1661 68.2522 66.3636C69.383 65.5611 70.2354 64.4259 70.6907 63.1162L73.2367 55.2914C73.838 53.4661 74.8601 51.8078 76.2205 50.4504C77.5796 49.0854 79.2382 48.0561 81.0647 47.4441L88.7929 44.9302C89.7794 44.5991 90.6749 44.0421 91.4081 43.3038C92.1413 42.5654 92.6919 41.666 93.0161 40.6772C93.3403 39.6884 93.429 38.6376 93.2753 37.6084C93.1216 36.5793 92.7297 35.6002 92.1308 34.7493C91.3325 33.6099 90.1995 32.7472 88.8863 32.2837L81.0357 29.7409C79.2733 29.1195 77.6744 28.1072 76.3589 26.78C75.0433 25.4527 74.0453 23.8449 73.4395 22.0771L70.8709 14.1783C70.4203 12.8361 69.5512 11.6741 68.3925 10.8597C67.2567 10.0766 65.9096 9.65723 64.53 9.65723C63.1503 9.65723 61.8033 10.0766 60.6675 10.8597C59.5409 11.6548 58.6912 12.7781 58.2341 14.0785L55.6752 21.9323C55.0698 23.7531 54.0473 25.4073 52.6893 26.763C51.3314 28.1188 49.6755 29.1385 47.8536 29.7409L40.1125 32.2516C38.7092 32.699 37.4893 33.5873 36.6298 34.7847C35.8328 35.9108 35.4048 37.2564 35.4048 38.636C35.4048 40.0155 35.8328 41.3611 36.6298 42.4872C37.4249 43.6138 38.5482 44.4667 39.8486 44.9302L47.712 47.4859C49.5273 48.0892 51.1764 49.1088 52.5273 50.4633C53.8824 51.8248 54.9091 53.4824 55.5175 55.3042L58.0281 63.0357C58.5032 64.3651 59.3639 65.5227 60.5001 66.3607C61.6331 67.1653 62.9914 67.5999 64.3819 67.5934ZM27.347 96.5622C28.5057 96.5652 29.6365 96.2073 30.5825 95.5382C31.5285 94.8691 32.2426 93.922 32.6257 92.8284L34.3896 87.4338C34.7476 86.3244 35.3643 85.316 36.1889 84.4919C37.0168 83.6677 38.0235 83.0454 39.1308 82.6733L44.4514 80.9513C45.5797 80.5669 46.5568 79.8343 47.2421 78.8591C47.7458 78.154 48.0783 77.3412 48.213 76.4852C48.3478 75.6292 48.2812 74.7535 48.0184 73.9278C47.7557 73.102 47.304 72.3489 46.6994 71.7282C46.0947 71.1074 45.3537 70.6362 44.5351 70.3519L39.1244 68.588C38.0411 68.2075 37.0599 67.5829 36.2567 66.7624C35.4536 65.9419 34.8499 64.9476 34.4926 63.8565L32.7706 58.5455C32.4969 57.7146 32.0315 56.9598 31.4121 56.342C30.7926 55.7243 30.0365 55.261 29.2048 54.9896C28.3731 54.7182 27.4893 54.6464 26.6247 54.7799C25.7601 54.9134 24.9391 55.2485 24.228 55.7581C23.2785 56.4244 22.5639 57.3739 22.1873 58.4683L20.4299 63.8629C20.0599 64.9646 19.4385 65.9651 18.6151 66.7852C17.7916 67.6053 16.7886 68.2225 15.6854 68.588L10.3584 70.3262C9.23578 70.6746 8.25198 71.3689 7.54762 72.3099C6.84325 73.251 6.45437 74.3906 6.43652 75.5659C6.41866 76.7412 6.77277 77.8921 7.44823 78.8541C8.12369 79.8161 9.08594 80.54 10.1975 80.9223L15.5824 82.6797C16.6883 83.0391 17.6924 83.657 18.5115 84.4822C19.3331 85.3085 19.9532 86.313 20.3237 87.4177L22.0553 92.7287C22.4425 93.8546 23.1746 94.8299 24.1475 95.5161C25.0806 96.1865 26.1981 96.5519 27.347 96.5622Z" fill="#EDDB3D"/>
</svg>
