<svg viewBox="0 0 29 35" fill="none" xmlns="http://www.w3.org/2000/svg">
<path d="M0.333496 31.9469V3.05315C0.333496 2.26218 0.612663 1.59869 1.171 1.06269C1.72933 0.526693 2.38072 0.259623 3.12516 0.261484C3.3578 0.261484 3.60254 0.295915 3.85937 0.364776C4.1162 0.433638 4.36001 0.53879 4.59079 0.680235L27.3429 15.1271C27.7616 15.4063 28.0762 15.7552 28.2865 16.174C28.4968 16.5927 28.601 17.0347 28.5991 17.5C28.5991 17.9653 28.4949 18.4073 28.2865 18.8261C28.078 19.2448 27.7635 19.5938 27.3429 19.8729L4.59079 34.3198C4.35815 34.4594 4.11434 34.5646 3.85937 34.6353C3.6044 34.706 3.35966 34.7404 3.12516 34.7386C2.38072 34.7386 1.72933 34.4706 1.171 33.9346C0.612663 33.3986 0.333496 32.736 0.333496 31.9469Z" fill="#6A80CF"/>
</svg>
