<svg width="49" height="49" viewBox="0 0 49 49" fill="none" xmlns="http://www.w3.org/2000/svg">
<path d="M8.16813 42.875C7.58966 42.875 7.1051 42.679 6.71447 42.287C6.32383 41.895 6.12783 41.4104 6.12646 40.8333V35.8823C6.12646 35.3379 6.22855 34.8186 6.43272 34.3245C6.63688 33.8304 6.92612 33.3969 7.30042 33.024L33.0765 7.29896C33.4848 6.92465 33.936 6.63542 34.4301 6.43125C34.9242 6.22708 35.4428 6.125 35.9858 6.125C36.5303 6.125 37.0577 6.22708 37.5681 6.43125C38.0785 6.63542 38.5209 6.94167 38.8952 7.35L41.7025 10.2083C42.1108 10.5826 42.4082 11.025 42.5947 11.5354C42.7812 12.0458 42.8751 12.5563 42.8765 13.0667C42.8765 13.6111 42.7825 14.1304 42.5947 14.6245C42.4069 15.1185 42.1095 15.5691 41.7025 15.976L15.9775 41.701C15.6032 42.0753 15.169 42.3646 14.6749 42.5688C14.1808 42.7729 13.6623 42.875 13.1192 42.875H8.16813ZM35.9348 15.925L38.7931 13.0667L35.9348 10.2083L33.0765 13.0667L35.9348 15.925Z" fill="black"/>
</svg>
