<svg width="100" height="120" viewBox="0 0 191 272" fill="none" xmlns="http://www.w3.org/2000/svg">
<path d="M141.133 226.281C142.924 226.285 144.671 225.729 146.131 224.693C147.591 223.657 148.692 222.191 149.28 220.5L152.567 210.396C153.344 208.039 154.664 205.898 156.42 204.145C158.175 202.383 160.317 201.053 162.675 200.263L172.654 197.017C173.928 196.59 175.085 195.87 176.031 194.917C176.978 193.964 177.689 192.802 178.108 191.525C178.526 190.249 178.641 188.892 178.442 187.563C178.244 186.234 177.738 184.97 176.965 183.871C175.934 182.4 174.471 181.286 172.775 180.687L162.638 177.404C160.362 176.601 158.298 175.294 156.599 173.58C154.9 171.867 153.611 169.791 152.829 167.508L149.512 157.308C148.931 155.575 147.808 154.075 146.312 153.023C144.846 152.012 143.106 151.47 141.325 151.47C139.543 151.47 137.804 152.012 136.337 153.023C134.882 154.05 133.785 155.5 133.195 157.179L129.891 167.321C129.109 169.672 127.789 171.808 126.035 173.559C124.282 175.309 122.144 176.626 119.791 177.404L109.795 180.646C107.983 181.223 106.408 182.371 105.298 183.917C104.269 185.371 103.716 187.108 103.716 188.89C103.716 190.671 104.269 192.409 105.298 193.863C106.325 195.317 107.775 196.419 109.455 197.017L119.608 200.317C121.952 201.096 124.082 202.413 125.826 204.162C127.576 205.92 128.902 208.06 129.687 210.413L132.929 220.396C133.543 222.113 134.654 223.607 136.121 224.689C137.584 225.729 139.338 226.29 141.133 226.281ZM93.3117 263.688C94.8078 263.691 96.2681 263.229 97.4896 262.365C98.7111 261.501 99.6332 260.278 100.128 258.866L102.406 251.9C102.868 250.468 103.664 249.166 104.729 248.102C105.798 247.037 107.098 246.234 108.528 245.753L115.398 243.53C116.855 243.033 118.117 242.087 119.001 240.828C119.652 239.918 120.081 238.868 120.255 237.763C120.429 236.658 120.343 235.527 120.004 234.461C119.665 233.394 119.081 232.422 118.301 231.62C117.52 230.819 116.563 230.21 115.506 229.843L108.519 227.566C107.121 227.074 105.854 226.268 104.816 225.208C103.779 224.149 103 222.865 102.539 221.456L100.315 214.598C99.9616 213.525 99.3607 212.55 98.5608 211.753C97.7609 210.955 96.7845 210.357 95.7106 210.006C94.6367 209.656 93.4954 209.563 92.379 209.736C91.2626 209.908 90.2024 210.341 89.2843 210.999C88.0582 211.859 87.1355 213.085 86.6492 214.498L84.3799 221.464C83.9021 222.887 83.0998 224.179 82.0365 225.238C80.9732 226.297 79.6781 227.094 78.2536 227.566L71.375 229.81C69.9254 230.26 68.655 231.156 67.7455 232.371C66.836 233.587 66.3338 235.058 66.3108 236.576C66.2877 238.093 66.745 239.58 67.6172 240.822C68.4893 242.064 69.7319 242.999 71.1672 243.492L78.1206 245.762C79.5485 246.226 80.8451 247.024 81.9027 248.089C82.9636 249.156 83.7643 250.453 84.2427 251.88L86.4788 258.737C86.9787 260.191 87.924 261.451 89.1804 262.337C90.3851 263.202 91.8282 263.674 93.3117 263.688Z" fill="#EDDB3D"/>
<path d="M145.438 100.688C145.452 102.968 144.759 105.197 143.454 107.068C142.149 108.939 140.297 110.359 138.152 111.134L102.037 124.419L88.7519 160.506C87.9652 162.643 86.5418 164.488 84.6738 165.79C82.8058 167.093 80.5831 167.792 78.3056 167.792C76.0281 167.792 73.8054 167.093 71.9374 165.79C70.0694 164.488 68.646 162.643 67.8593 160.506L54.5392 124.461L18.4455 111.176C16.3082 110.389 14.4636 108.966 13.1607 107.098C11.8578 105.23 11.1592 103.007 11.1592 100.729C11.1592 98.452 11.8578 96.2292 13.1607 94.3613C14.4636 92.4933 16.3082 91.0699 18.4455 90.2831L54.5601 76.998L67.8453 40.9113C68.632 38.774 70.0554 36.9294 71.9234 35.6265C73.7914 34.3236 76.0141 33.625 78.2916 33.625C80.5691 33.625 82.7918 34.3236 84.6598 35.6265C86.5278 36.9294 87.9512 38.774 88.738 40.9113L102.023 77.0259L138.11 90.3111C140.252 91.0748 142.105 92.4816 143.417 94.339C144.728 96.1964 145.434 98.4137 145.438 100.688ZM106.281 33.5625H117.469V44.75C117.469 46.2336 118.058 47.6563 119.107 48.7054C120.156 49.7544 121.579 50.3438 123.063 50.3438C124.546 50.3438 125.969 49.7544 127.018 48.7054C128.067 47.6563 128.656 46.2336 128.656 44.75V33.5625H139.844C141.327 33.5625 142.75 32.9732 143.799 31.9241C144.848 30.8751 145.438 29.4523 145.438 27.9688C145.438 26.4852 144.848 25.0624 143.799 24.0134C142.75 22.9643 141.327 22.375 139.844 22.375H128.656V11.1875C128.656 9.70395 128.067 8.28115 127.018 7.23212C125.969 6.18309 124.546 5.59375 123.063 5.59375C121.579 5.59375 120.156 6.18309 119.107 7.23212C118.058 8.28115 117.469 9.70395 117.469 11.1875V22.375H106.281C104.798 22.375 103.375 22.9643 102.326 24.0134C101.277 25.0624 100.688 26.4852 100.688 27.9688C100.688 29.4523 101.277 30.8751 102.326 31.9241C103.375 32.9732 104.798 33.5625 106.281 33.5625ZM167.813 55.9375H162.219V50.3438C162.219 48.8602 161.63 47.4374 160.58 46.3884C159.531 45.3393 158.109 44.75 156.625 44.75C155.142 44.75 153.719 45.3393 152.67 46.3884C151.621 47.4374 151.031 48.8602 151.031 50.3438V55.9375H145.438C143.954 55.9375 142.531 56.5268 141.482 57.5759C140.433 58.6249 139.844 60.0477 139.844 61.5313C139.844 63.0148 140.433 64.4376 141.482 65.4866C142.531 66.5357 143.954 67.125 145.438 67.125H151.031V72.7188C151.031 74.2023 151.621 75.6251 152.67 76.6741C153.719 77.7232 155.142 78.3125 156.625 78.3125C158.109 78.3125 159.531 77.7232 160.58 76.6741C161.63 75.6251 162.219 74.2023 162.219 72.7188V67.125H167.813C169.296 67.125 170.719 66.5357 171.768 65.4866C172.817 64.4376 173.406 63.0148 173.406 61.5313C173.406 60.0477 172.817 58.6249 171.768 57.5759C170.719 56.5268 169.296 55.9375 167.813 55.9375Z" fill="#EDDB3D"/>
</svg>
